<svg width="142" height="142" viewBox="0 0 142 142" fill="none" xmlns="http://www.w3.org/2000/svg">
<rect width="85" height="85" transform="translate(28 28)" fill="white"/>
<path d="M109.546 70.5001C109.546 48.9351 92.0645 31.4533 70.4995 31.4533C48.9345 31.4533 31.4526 48.9351 31.4526 70.5001C31.4526 92.0651 48.9345 109.547 70.4995 109.547C92.0645 109.547 109.546 92.0651 109.546 70.5001Z" stroke="#2DD790" stroke-width="2" stroke-miterlimit="10"/>
<path d="M84.8608 61.1087L66.0783 79.8913L56.687 70.5" stroke="#2DD790" stroke-width="4.5" stroke-linecap="round" stroke-linejoin="round"/>
<path opacity="0.1" d="M136.463 71.2312C136.463 35.205 107.257 6 71.2312 6C35.205 6 6 35.205 6 71.2312C6 107.257 35.205 136.463 71.2312 136.463C107.257 136.463 136.463 107.257 136.463 71.2312Z" fill="#2DD790"/>
</svg>
