<svg width="32" height="32" viewBox="0 0 32 32" fill="none" xmlns="http://www.w3.org/2000/svg">
<circle opacity="0.1" cx="16" cy="16" r="16" fill="#2DD790"/>
<path d="M17.445 24.18C19.6238 22.2625 23.5 18.345 23.5 14.75C23.5 12.7609 22.7098 10.8532 21.3033 9.4467C19.8968 8.04018 17.9891 7.25 16 7.25C14.0109 7.25 12.1032 8.04018 10.6967 9.4467C9.29018 10.8532 8.5 12.7609 8.5 14.75C8.5 18.345 12.375 22.2625 14.555 24.18C14.9526 24.5349 15.467 24.7311 16 24.7311C16.533 24.7311 17.0474 24.5349 17.445 24.18ZM13.5 14.75C13.5 14.087 13.7634 13.4511 14.2322 12.9822C14.7011 12.5134 15.337 12.25 16 12.25C16.663 12.25 17.2989 12.5134 17.7678 12.9822C18.2366 13.4511 18.5 14.087 18.5 14.75C18.5 15.413 18.2366 16.0489 17.7678 16.5178C17.2989 16.9866 16.663 17.25 16 17.25C15.337 17.25 14.7011 16.9866 14.2322 16.5178C13.7634 16.0489 13.5 15.413 13.5 14.75Z" fill="#2DD790"/>
</svg>
